Eaten Alive Mangiati vivi! 1980 DVDRip Xvid fasamoo LKRG



RIPPER                           : fasamoo
Format                           : AVI
Format/Info                      : Audio Video Interleave
File size                        : 700 MiB
Duration                         : 1h 43mn
Overall bit rate                 : 947 Kbps
Writing application              : VirtualDubMod 1.5.4.1 (build 2178/release)
Writing library                  : VirtualDubMod build 2178/release
Language                         : English
Genre                            : Adventure | Horror

Video
ID                               : 0
Format                           : MPEG-4 Visual
Format profile                   : Advanced Simple@L5
Format settings, BVOP            : Yes
Format settings, QPel            : No
Format settings, GMC             : No warppoints
Format settings, Matrix          : Custom
Codec ID                         : XVID
Codec ID/Hint                    : XviD
Duration                         : 1h 43mn
Bit rate                         : 831 Kbps
Width                            : 432 pixels
Height                           : 224 pixels
Display aspect ratio             : 1.929
Frame rate                       : 23.976 fps
Color space                      : YUV
Chroma subsampling               : 4:2:0
Bit depth                        : 8 bits
Scan type                        : Progressive
Bits/(Pixel*Frame)               : 0.358
Stream size                      : 614 MiB (88%)
Writing library                  : XviD 1.2.1 (UTC 2008-12-04)

Audio
ID                               : 1
Format                           : MPEG Audio
Format version                   : Version 1
Format profile                   : Layer 3
Mode                             : Joint stereo
Mode extension                   : MS Stereo
Codec ID                         : 55
Codec ID/Hint                    : MP3
Duration                         : 1h 43mn
Bit rate mode                    : Variable
Bit rate                         : 103 Kbps
Nominal bit rate                 : 128 Kbps
Channel(s)                       : 2 channels
Sampling rate                    : 48.0 KHz
Stream size                      : 76.4 MiB (11%)
Alignment                        : Aligned on interleaves
Interleave, duration             : 24 ms (0.58 video frame)
Interleave, preload duration     : 519 ms
Writing library                  : LAME3.98r
Encoding settings                : -m j -V 4 -q 2 -lowpass 17 --abr 128

PLOT

A young woman teams up with an adventurer to find her missing sister in the jungles of New Guinea and they stumble upon a religious cult led by a... A young woman teams up with an adventurer to find her missing sister in the jungles of New Guinea and they stumble upon a religious cult led by a deranged preacher whom has located his commune in an area inhabited by cannibals.


                                 IMBD
                     
                 http://www.imdb.com/title/tt0081112/
 
http://leetleech.org/images/24511759136651857638.png 
http://leetleech.org/images/76193573696388244970.png 
http://leetleech.org/images/18125502610282843770.png 
http://leetleech.org/images/01929682984303313446.png      